<svg xmlns="http://www.w3.org/2000/svg" width="20" height="16" viewBox="0 0 20 16" fill="none">
<path fill-rule="evenodd" clip-rule="evenodd" d="M19 14H3.1L19.31 1.39L18.7 0.6L2 13.59V1C2 0.45 1.55 0 1 0C0.45 0 0 0.45 0 1V15C0 15.55 0.45 16 1 16H19C19.55 16 20 15.55 20 15C20 14.45 19.55 14 19 14ZM10 5C11.1 5 12 4.1 12 3C12 1.9 11.1 1 10 1C8.9 1 8 1.9 8 3C8 4.1 8.9 5 10 5ZM5 9C6.1 9 7 8.1 7 7C7 5.9 6.1 5 5 5C3.9 5 3 5.9 3 7C3 8.1 3.9 9 5 9ZM15 7C15 8.1 15.9 9 17 9C18.1 9 19 8.1 19 7C19 5.9 18.1 5 17 5C15.9 5 15 5.9 15 7ZM10 11C10 12.1 10.9 13 12 13C13.1 13 14 12.1 14 11C14 9.9 13.1 9 12 9C10.9 9 10 9.9 10 11Z" fill="black"/>
</svg>