<svg xmlns="http://www.w3.org/2000/svg" width="20" height="20" viewBox="0 0 20 20" fill="none">
<path fill-rule="evenodd" clip-rule="evenodd" d="M2 8C0.9 8 0 8.9 0 10C0 11.1 0.9 12 2 12C3.1 12 4 11.1 4 10C4 8.9 3.1 8 2 8ZM2 16C0.9 16 0 16.9 0 18C0 19.1 0.9 20 2 20C3.1 20 4 19.1 4 18C4 16.9 3.1 16 2 16ZM2 0C0.9 0 0 0.9 0 2C0 3.1 0.9 4 2 4C3.1 4 4 3.1 4 2C4 0.9 3.1 0 2 0ZM18 8C16.9 8 16 8.9 16 10C16 11.1 16.9 12 18 12C19.1 12 20 11.1 20 10C20 8.9 19.1 8 18 8ZM10 12C8.9 12 8 12.9 8 14C8 15.1 8.9 16 10 16C11.1 16 12 15.1 12 14C12 12.9 11.1 12 10 12ZM10 4C8.9 4 8 4.9 8 6C8 7.1 8.9 8 10 8C11.1 8 12 7.1 12 6C12 4.9 11.1 4 10 4Z" fill="#101828"/>
</svg>