<svg xmlns="http://www.w3.org/2000/svg" width="20" height="20" viewBox="0 0 20 20" fill="none">
<path fill-rule="evenodd" clip-rule="evenodd" d="M6 8H1C0.45 8 0 8.45 0 9V11C0 11.55 0.45 12 1 12H6C6.55 12 7 11.55 7 11V9C7 8.45 6.55 8 6 8ZM19 2H14C13.45 2 13 2.45 13 3V5C13 5.55 13.45 6 14 6H19C19.55 6 20 5.55 20 5V3C20 2.45 19.55 2 19 2ZM19 5H14V3H19V5ZM6 14H1C0.45 14 0 14.45 0 15V17C0 17.55 0.45 18 1 18H6C6.55 18 7 17.55 7 17V15C7 14.45 6.55 14 6 14ZM6 2H1C0.45 2 0 2.45 0 3V5C0 5.55 0.45 6 1 6H6C6.55 6 7 5.55 7 5V3C7 2.45 6.55 2 6 2ZM10 0C9.45 0 9 0.45 9 1V19C9 19.55 9.45 20 10 20C10.55 20 11 19.55 11 19V1C11 0.45 10.55 0 10 0ZM19 14H14C13.45 14 13 14.45 13 15V17C13 17.55 13.45 18 14 18H19C19.55 18 20 17.55 20 17V15C20 14.45 19.55 14 19 14ZM19 17H14V15H19V17ZM19 8H14C13.45 8 13 8.45 13 9V11C13 11.55 13.45 12 14 12H19C19.55 12 20 11.55 20 11V9C20 8.45 19.55 8 19 8ZM19 11H14V9H19V11Z" fill="#101828"/>
</svg>